<svg xmlns="http://www.w3.org/2000/svg" xmlns:xlink="http://www.w3.org/1999/xlink" id="R&#xE9;teg_1" x="0px" y="0px" viewBox="0 0 1224 198.1" style="enable-background:new 0 0 1224 198.1;" xml:space="preserve">
<style type="text/css">
	.st0{fill:#E30613;}
	.st1{fill:#9E151A;}
	.st2{fill:#FFFFFF;}
</style>
<g id="XMLID_5_">
	<g id="XMLID_7_">
		<g id="XMLID_10_">
			<path id="XMLID_19_" class="st0" d="M81.1,55.8c1-17.3,11.1-27.9,17.2-29.4c3.9-1,20.5,9.5-3.8,36c-0.8,0.9,3.3,5,6.4,4.8     c2.1-0.2,2.8-2.7,4.2-3.4c4.9-2.6,35-4.2,35-4.2c4.2-1.4,6.8-7.3,5.1-9.2l-36.5,7.1c20.6-22,6.7-38.5,2.1-40.8     C106.4,14.5,87.3,6,75,49.7c0,0-25.6-74.5-65.6-41c-25.8,21.6,7.8,54,25.4,56.3L6,80.8c-0.2,2.2,5.6,7.3,9.1,8.6     c0,0,25.6-19.8,36.5-20.5c12.9-0.9,16.5-3.2,9.8-6.4c-9.9-4.7-36.1-11.7-39.5-23c-3.1-10.3,0.6-22.4,5.5-24     c25.2-8.4,40.8,40.8,44.7,41C77.2,56.8,81,56.6,81.1,55.8"></path>
			<polygon id="XMLID_18_" class="st0" points="71.7,50.6 73,79.2 147.4,108.8 137.4,92.3 148.1,88.5    "></polygon>
			<polygon id="XMLID_17_" class="st0" points="73.7,92.8 74.9,117.6 146.3,137 147,118.8    "></polygon>
			<polygon id="XMLID_16_" class="st0" points="19.3,176 114.6,198.1 104.5,186.7 114.6,181.6 39.1,154.3    "></polygon>
			<polygon id="XMLID_15_" class="st0" points="13.7,129 114.6,168.5 114.6,146.5 36,110.3    "></polygon>
			<polygon id="XMLID_14_" class="st1" points="10.2,99.2 13.7,129 73,79.2 71.7,50.6    "></polygon>
			<polygon id="XMLID_13_" class="st1" points="114.6,168.5 146.3,137 130.6,133 114.6,146.5    "></polygon>
			<polygon id="XMLID_12_" class="st1" points="19.3,176 16,148 73.7,92.8 74.9,117.3    "></polygon>
		</g>
		<g id="XMLID_9_">
			<path id="XMLID_36_" class="st2" d="M215.1,143.3h-39.3l-9,22.5h-16.5l45.1-108.6l45.1,108.6h-16.5L215.1,143.3z M181.3,129.4     h28.2l-14-35.9L181.3,129.4z"></path>
			<path id="XMLID_35_" class="st2" d="M261.6,136.9c0,11.6,5.9,16.1,13.4,16.1c8.1,0,13.5-6.1,13.5-14.6V59.2h15.5v79.3     c0,17.1-12.9,29.2-29.1,29.2c-16,0-28.5-10.8-28.5-30.9L261.6,136.9L261.6,136.9z"></path>
			<path id="XMLID_32_" class="st2" d="M379.6,143.3h-39.3l-9,22.5h-16.5L360,57.2l45.1,108.6h-16.5L379.6,143.3z M345.8,129.4H374     l-14-35.9L345.8,129.4z"></path>
			<path id="XMLID_31_" class="st2" d="M418,59.2h14.3l54.5,65.3V59.2h14.6v108.4l-68.8-84.2v82.4H418V59.2z"></path>
			<path id="XMLID_28_" class="st2" d="M523.5,59.2h37.3c28.6,0,51.6,23.9,51.6,53.3s-22.2,53.3-51.6,53.3h-37.3V59.2z M559,150.7     c21.8,0,37.3-16.5,37.3-38.2S580.6,73.7,559,73.7h-20v77H559z"></path>
			<polygon id="XMLID_27_" class="st2" points="628.9,59.2 688,59.2 688,74 644.4,74 644.4,103.1 686.6,103.1 686.6,117.4      644.4,117.4 644.4,150.6 688.9,150.6 688.9,165.8 628.9,165.8 628.9,59.2    "></polygon>
			<polygon id="XMLID_26_" class="st2" points="664.7,31.8 679.6,31.8 661.6,51.6 650.2,51.6    "></polygon>
			<path id="XMLID_24_" class="st2" d="M707.6,59.2h15.5v49l35.5-49h17.8l-36.4,49.2l39.6,57.4h-18.7l-30.6-46.3l-7.2,9.1v37.2     h-15.5L707.6,59.2L707.6,59.2z"></path>
			<path id="XMLID_21_" class="st2" d="M779.7,112.7c0-30.6,23-55.3,54.7-55.3S889,82,889,112.7c0,30.5-23,55.1-54.7,55.1     S779.7,143.1,779.7,112.7z M795.9,112.7c0,23,16.3,39.9,38.4,39.9c22.1,0,38.4-16.9,38.4-39.9c0-23.2-16.3-40-38.4-40     C812.2,72.6,795.9,89.5,795.9,112.7z"></path>
			<path id="XMLID_20_" class="st2" d="M905.3,59.2h15.5v49l35.5-49h17.8l-36.4,49.2l39.6,57.4h-18.7L928,119.5l-7.2,9.1v37.2h-15.5     L905.3,59.2L905.3,59.2z"></path>
			<path id="XMLID_11_" class="st2" d="M997.6,147.4c5.6,0,10.2,4.6,10.2,10.2s-4.6,10.2-10.2,10.2s-10.2-4.6-10.2-10.2     C987.4,151.9,991.9,147.4,997.6,147.4z"></path>
			<path id="XMLID_4_" class="st2" d="M1100.8,161.4v4.4H1085v-4.4c0-11.7-7.8-26.8-27.6-26.8h-15.7v31.2h-15.5V59.2h34     c24.7,0,40.7,17.4,40.7,37.9c0,15.2-9.1,25.6-17.8,30.5C1096.2,135.2,1100.8,148.6,1100.8,161.4z M1060.8,73.7h-19v46.9h19     c14.6,0,23.9-11.6,23.9-23.5C1084.7,84.2,1075.5,73.7,1060.8,73.7z"></path>
			<path id="XMLID_1_" class="st2" d="M1114.7,112.7c0-30.6,23-55.3,54.7-55.3S1224,82,1224,112.7c0,30.5-23,55.1-54.7,55.1     S1114.7,143.1,1114.7,112.7z M1131,112.7c0,23,16.3,39.9,38.4,39.9c22.1,0,38.4-16.9,38.4-39.9c0-23.2-16.3-40-38.4-40     C1147.3,72.6,1131,89.5,1131,112.7z"></path>
			<polygon id="XMLID_25_" class="st2" points="368,31.8 382.9,31.8 364.9,51.6 353.5,51.6    "></polygon>
		</g>
	</g>
</g>
</svg>