<svg xmlns="http://www.w3.org/2000/svg" width="54" height="52" viewBox="0 0 54 52" fill="none">
	<path fill-rule="evenodd" clip-rule="evenodd" d="M16.1612 18.3642C14.5083 18.3642 13.1683 19.7042 13.1683 21.3571C13.1683 23.01 14.5083 24.3499 16.1612 24.3499C17.8141 24.3499 19.154 23.01 19.154 21.3571C19.154 19.7042 17.8141 18.3642 16.1612 18.3642ZM9.5769 21.3571C9.5769 17.7207 12.5248 14.7728 16.1612 14.7728C19.7976 14.7728 22.7454 17.7207 22.7454 21.3571C22.7454 24.9935 19.7976 27.9414 16.1612 27.9414C12.5248 27.9414 9.5769 24.9935 9.5769 21.3571Z" fill="#CE311A"/>
	<path fill-rule="evenodd" clip-rule="evenodd" d="M23.6925 37.1706C20.7002 40.5214 17.5794 45.1045 14.28 50.9691C13.7937 51.8334 12.6988 52.1399 11.8345 51.6536C10.9701 51.1671 10.6637 50.0724 11.15 49.2081C14.5186 43.2207 17.7845 38.3943 21.0137 34.7785C24.2346 31.1715 27.5064 28.6702 30.9075 27.4925C34.3739 26.292 37.8351 26.5168 41.2476 28.1075C44.6003 29.6703 47.8487 32.5212 51.0747 36.4796C51.7011 37.2484 51.5859 38.3797 50.8171 39.0061C50.0483 39.6326 48.9172 39.5172 48.2906 38.7484C45.2437 35.0095 42.4014 32.6078 39.7304 31.3626C37.1192 30.1456 34.6229 30.0064 32.0828 30.8861C29.4771 31.7885 26.6928 33.811 23.6925 37.1706Z" fill="#CE311A"/>
	<path fill-rule="evenodd" clip-rule="evenodd" d="M3.33102 8.52655C5.46389 6.39368 8.35663 5.19568 11.3728 5.19568H28.8032C29.7949 5.19568 30.5989 5.99965 30.5989 6.99139C30.5989 7.98312 29.7949 8.7871 28.8032 8.7871H11.3728C9.309 8.7871 7.32977 9.60682 5.87053 11.0661C4.41127 12.5253 3.59142 14.5047 3.59142 16.5685V40.5113C3.59142 42.5749 4.41122 44.554 5.87053 46.0133C7.32987 47.4729 9.30912 48.2927 11.3728 48.2927H40.1042C42.1678 48.2927 44.1471 47.4729 45.6065 46.0133C47.0658 44.554 47.8856 42.5749 47.8856 40.5113V28.5399C47.8856 27.5482 48.6896 26.7442 49.6813 26.7442C50.673 26.7442 51.477 27.5482 51.477 28.5399V40.5113C51.477 43.5276 50.2789 46.4201 48.1461 48.5529C46.0132 50.6858 43.1205 51.8841 40.1042 51.8841H11.3728C8.35649 51.8841 5.46379 50.6858 3.33102 48.5529C1.19821 46.4201 0 43.5276 0 40.5113V16.5685C0 13.5523 1.19817 10.6594 3.33102 8.52655Z" fill="#CE311A"/>
	<path fill-rule="evenodd" clip-rule="evenodd" d="M44.294 0C45.2857 0 46.0897 0.803965 46.0897 1.79571V20.9499C46.0897 21.9417 45.2857 22.7457 44.294 22.7457C43.3023 22.7457 42.4983 21.9417 42.4983 20.9499V1.79571C42.4983 0.803965 43.3023 0 44.294 0Z" fill="#CE311A"/>
	<path fill-rule="evenodd" clip-rule="evenodd" d="M43.0263 0.525949C43.7276 -0.175316 44.8644 -0.175316 45.5656 0.525949L53.2273 8.18765C53.9286 8.88891 53.9286 10.0259 53.2273 10.7272C52.5261 11.4284 51.3893 11.4284 50.688 10.7272L44.296 4.33521L37.904 10.7272C37.2027 11.4284 36.0656 11.4284 35.3646 10.7272C34.6633 10.0259 34.6633 8.88891 35.3646 8.18765L43.0263 0.525949Z" fill="#CE311A"/>
</svg>